<?xml version="1.0" encoding="UTF-8"?>
<!DOCTYPE svg PUBLIC "-//W3C//DTD SVG 1.0//EN" "http://www.w3.org/TR/2001/REC-SVG-20010904/DTD/svg10.dtd">
<!-- Creator: CorelDRAW -->
<svg xmlns="http://www.w3.org/2000/svg" xml:space="preserve" width="6.2226mm" height="7mm" version="1.0" style="shape-rendering:geometricPrecision; text-rendering:geometricPrecision; image-rendering:optimizeQuality; fill-rule:evenodd; clip-rule:evenodd"
viewBox="0 0 407.98 458.95"
 xmlns:xlink="http://www.w3.org/1999/xlink"
 xmlns:xodm="http://www.corel.com/coreldraw/odm/2003">
 <defs>
  <style type="text/css">
   <![CDATA[
    .fil0 {fill:white;fill-rule:nonzero}
   ]]>
  </style>
 </defs>
 <g id="Camada_x0020_1">
  <metadata id="CorelCorpID_0Corel-Layer"/>
  <g id="_1595085500560">
   <path class="fil0" d="M232.99 32.06c0.4,-4.06 -0.05,-8.16 -1.32,-12.02 -1.27,-3.87 -3.34,-7.43 -6.07,-10.44 -2.73,-3.03 -6.06,-5.44 -9.79,-7.09 -3.72,-1.65 -7.74,-2.51 -11.82,-2.51 -4.08,0 -8.1,0.86 -11.82,2.51 -3.72,1.65 -7.05,4.06 -9.79,7.09 -2.73,3.02 -4.8,6.58 -6.07,10.44 -1.27,3.86 -1.72,7.96 -1.32,12.02 -32.94,6.69 -62.54,24.57 -83.82,50.6 -21.27,26.03 -32.89,58.61 -32.89,92.22 0,32 -14.57,174.85 -58.28,204l407.98 0c-43.71,-29.14 -58.28,-172 -58.28,-204 0,-70.52 -50.12,-129.39 -116.71,-142.81z"/>
   <path class="fil0" d="M203.99 458.95c15.45,0 30.28,-6.14 41.21,-17.07 10.93,-10.92 17.07,-25.75 17.07,-41.21l-116.57 0c0,15.46 6.14,30.28 17.07,41.21 10.93,10.94 25.76,17.07 41.21,17.07z"/>
  </g>
 </g>
</svg>
