<?xml version="1.0" encoding="UTF-8"?>
<!DOCTYPE svg PUBLIC "-//W3C//DTD SVG 1.0//EN" "http://www.w3.org/TR/2001/REC-SVG-20010904/DTD/svg10.dtd">
<!-- Creator: CorelDRAW -->
<svg xmlns="http://www.w3.org/2000/svg" xml:space="preserve" width="17.4792mm" height="11.3976mm" version="1.0" style="shape-rendering:geometricPrecision; text-rendering:geometricPrecision; image-rendering:optimizeQuality; fill-rule:evenodd; clip-rule:evenodd"
viewBox="0 0 102.14 66.6"
 xmlns:xlink="http://www.w3.org/1999/xlink"
 xmlns:xodm="http://www.corel.com/coreldraw/odm/2003">
 <defs>
  <style type="text/css">
   <![CDATA[
    .fil2 {fill:#FEFEFC}
    .fil1 {fill:#FF010B}
    .fil0 {fill:white}
   ]]>
  </style>
 </defs>
 <g id="Camada_x0020_1">
  <metadata id="CorelCorpID_0Corel-Layer"/>
  <polygon class="fil0" points="80.02,26.31 102.14,26.31 91.08,40.3 "/>
  <g id="_1594886330640">
   <rect class="fil1" width="66.6" height="66.6"/>
   <path class="fil2" d="M58.56 45.36c0.31,-0.75 -0.32,-1.51 -0.69,-1.77 -0.72,-0.51 -1.28,-0.2 -1.96,0.17 -1.67,0.9 -3.65,1.69 -5.43,2.27 -6.2,2.01 -13.41,1.93 -19.12,-1.16 -1.15,-0.62 -2.7,-1.29 -3.32,0.41 -0.28,0.77 0.2,1.41 0.72,1.73 0.59,0.36 1.06,0.59 1.69,0.91 1.16,0.58 2.37,1.01 3.7,1.41 2.64,0.79 5.91,1.35 9.04,1.12 3.31,-0.25 5.78,-0.66 8.63,-1.59 1.32,-0.43 2.5,-0.92 3.65,-1.45 0.85,-0.38 2.76,-1.24 3.09,-2.04z"/>
   <path class="fil2" d="M58.58 27.31c0.29,-2.21 -1.38,-3.95 -3.16,-4.19 -2.16,-0.29 -4.03,1.27 -4.25,3.16 -0.6,5.16 6.78,5.89 7.41,1.03z"/>
   <path class="fil2" d="M14.2 23.14c-2.21,0.37 -3.49,2.38 -3.18,4.19 0.32,1.92 1.99,3.6 4.3,3.23 1.7,-0.27 3.54,-2.02 3.13,-4.24 -0.35,-1.92 -1.99,-3.57 -4.25,-3.18z"/>
  </g>
 </g>
</svg>
