<?xml version="1.0" encoding="UTF-8"?>
<!DOCTYPE svg PUBLIC "-//W3C//DTD SVG 1.0//EN" "http://www.w3.org/TR/2001/REC-SVG-20010904/DTD/svg10.dtd">
<!-- Creator: CorelDRAW -->
<svg xmlns="http://www.w3.org/2000/svg" xml:space="preserve" width="6.9998mm" height="7mm" version="1.0" style="shape-rendering:geometricPrecision; text-rendering:geometricPrecision; image-rendering:optimizeQuality; fill-rule:evenodd; clip-rule:evenodd"
viewBox="0 0 1464.18 1464.22"
 xmlns:xlink="http://www.w3.org/1999/xlink"
 xmlns:xodm="http://www.corel.com/coreldraw/odm/2003">
 <defs>
  <style type="text/css">
   <![CDATA[
    .fil0 {fill:white;fill-rule:nonzero}
   ]]>
  </style>
 </defs>
 <g id="Camada_x0020_1">
  <metadata id="CorelCorpID_0Corel-Layer"/>
  <path class="fil0" d="M658.9 1171.35c137.85,0 262.85,-54.18 354.7,-142.32 2.13,-2.89 4.52,-5.65 7.15,-8.28 2.61,-2.61 5.4,-5 8.26,-7.13 88.17,-91.87 142.34,-216.87 142.34,-354.7 0,-141.72 -57.25,-269.86 -149.81,-362.37l-0.31 -0.31c-92.52,-92.54 -220.64,-149.79 -362.33,-149.79 -141.69,0 -269.83,57.25 -362.35,149.79l-0.31 0.31c-92.56,92.52 -149.81,220.66 -149.81,362.37 0,141.69 57.25,269.81 149.81,362.33l0.31 0.31c92.52,92.54 220.66,149.79 362.35,149.79zm783.84 167.88c28.57,28.57 28.57,74.97 0,103.54 -28.59,28.59 -74.97,28.59 -103.54,0l-269.21 -269.23c-112.79,90.26 -255.76,144.25 -411.09,144.25 -181.48,0 -346.06,-73.69 -465.41,-192.84l-0.31 -0.33c-119.4,-119.5 -193.17,-284.14 -193.17,-465.71 0,-181.5 73.69,-346.1 192.84,-465.45l0.29 -0.29c119.54,-119.4 284.2,-193.17 465.77,-193.17 181.48,0 346.08,73.69 465.41,192.84l0.29 0.33c119.4,119.48 193.17,284.16 193.17,465.75 0,155.27 -53.99,298.22 -144.27,411.07l269.23 269.25z"/>
 </g>
</svg>
