<?xml version="1.0" encoding="UTF-8"?>
<!DOCTYPE svg PUBLIC "-//W3C//DTD SVG 1.0//EN" "http://www.w3.org/TR/2001/REC-SVG-20010904/DTD/svg10.dtd">
<!-- Creator: CorelDRAW -->
<svg xmlns="http://www.w3.org/2000/svg" xml:space="preserve" width="36.8335mm" height="5.6812mm" version="1.0" style="shape-rendering:geometricPrecision; text-rendering:geometricPrecision; image-rendering:optimizeQuality; fill-rule:evenodd; clip-rule:evenodd"
viewBox="0 0 1061.11 163.67"
 xmlns:xlink="http://www.w3.org/1999/xlink"
 xmlns:xodm="http://www.corel.com/coreldraw/odm/2003">
 <defs>
  <style type="text/css">
   <![CDATA[
    .fil0 {fill:#FF010B}
   ]]>
  </style>
 </defs>
 <g id="Camada_x0020_1">
  <metadata id="CorelCorpID_0Corel-Layer"/>
  <polygon class="fil0" points="86.04,0 113.75,52.34 172.09,62.52 130.87,105.04 139.22,163.67 86.04,137.6 32.86,163.67 41.22,105.04 -0,62.52 58.34,52.34 "/>
  <polygon class="fil0" points="308.3,0 336,52.34 394.34,62.52 353.12,105.04 361.48,163.67 308.3,137.6 255.12,163.67 263.48,105.04 222.26,62.52 280.59,52.34 "/>
  <polygon class="fil0" points="530.56,0 558.26,52.34 616.6,62.52 575.38,105.04 583.73,163.67 530.56,137.6 477.38,163.67 485.73,105.04 444.51,62.52 502.85,52.34 "/>
  <polygon class="fil0" points="752.81,0 780.52,52.34 838.86,62.52 797.64,105.04 805.99,163.67 752.82,137.6 699.64,163.67 707.99,105.04 666.77,62.52 725.11,52.34 "/>
  <polygon class="fil0" points="975.07,0 1002.77,52.34 1061.11,62.52 1019.9,105.04 1028.25,163.67 975.07,137.6 921.89,163.67 930.25,105.04 889.03,62.52 947.36,52.34 "/>
 </g>
</svg>
